<svg id="Layer_1" data-name="Layer 1" xmlns="http://www.w3.org/2000/svg" viewBox="0 0 800 800"><title>new-stad</title><rect width="800" height="800" style="fill:none"/><rect x="323.03" y="15" width="157.04" height="37.05" style="fill:#58595b"/><rect x="375.36" y="15" width="52.36" height="41.7" style="fill:#0b67b2"/><text transform="translate(328.37 35.35)" style="font-size:13.5013427734375px;fill:#fff;font-family:Bebas Neue;font-weight:700">G<tspan x="5.25" y="0">ATE 9</tspan></text><text transform="translate(441.41 35.35)" style="font-size:13.5013427734375px;fill:#fff;font-family:Bebas Neue;font-weight:700">G<tspan x="5.25" y="0">ATE 10</tspan></text><text transform="translate(383.75 29.95)" style="font-size:13.5013427734375px;fill:#fff;font-family:Bebas Neue;font-weight:700">S<tspan x="5.05" y="0">T</tspan><tspan x="9.34" y="0">ADIUM</tspan><tspan x="4.1" y="10.8">OFFICE</tspan></text><rect x="635.25" y="131.8" width="59.86" height="22.05" style="fill:#58595b"/><text transform="translate(656.1 147.36)" style="font-size:13.5013427734375px;fill:#fff;font-family:Bebas Neue;font-weight:700">G<tspan x="5.25" y="0">ATE 11</tspan></text><rect x="676.21" y="234.76" width="59.86" height="22.05" style="fill:#58595b"/><text transform="translate(697.05 250.32)" style="font-size:13.5013427734375px;fill:#fff;font-family:Bebas Neue;font-weight:700">G<tspan x="5.25" y="0">ATE 12</tspan></text><rect x="702.76" y="396.9" width="59.86" height="22.05" style="fill:#58595b"/><text transform="translate(723.6 412.46)" style="font-size:13.5013427734375px;fill:#fff;font-family:Bebas Neue;font-weight:700">G<tspan x="5.25" y="0">ATE 1</tspan></text><rect x="714.82" y="448.33" width="59.86" height="22.05" style="fill:#0b67b2"/><text transform="translate(728.91 463.89)" style="font-size:13.5013427734375px;fill:#fff;font-family:Bebas Neue;font-weight:700">TICKETS</text><rect x="27.06" y="335.86" width="59.86" height="22.05" style="fill:#0b67b2"/><text transform="translate(41.14 351.42)" style="font-size:13.5013427734375px;fill:#fff;font-family:Bebas Neue;font-weight:700">TICKETS</text><rect x="660.01" y="604.95" width="59.86" height="22.05" style="fill:#58595b"/><text transform="translate(680.85 620.51)" style="font-size:13.5013427734375px;fill:#fff;font-family:Bebas Neue;font-weight:700">G<tspan x="5.25" y="0">ATE 2</tspan></text><rect x="374.06" y="764.16" width="59.86" height="22.05" style="fill:#58595b"/><text transform="translate(390.01 779.71)" style="font-size:13.5013427734375px;fill:#fff;font-family:Bebas Neue;font-weight:700">G<tspan x="5.25" y="0">ATE 4</tspan></text><rect x="117.41" y="699.84" width="83.69" height="22.05" style="fill:#58595b"/><text transform="translate(133.35 715.39)" style="font-size:13.5013427734375px;fill:#fff;font-family:Bebas Neue;font-weight:700">G<tspan x="5.25" y="0">ATE 5</tspan></text><rect x="75.56" y="607.4" width="83.69" height="22.05" style="fill:#58595b"/><text transform="translate(91.51 622.95)" style="font-size:13.5013427734375px;fill:#fff;font-family:Bebas Neue;font-weight:700">G<tspan x="5.25" y="0">ATE 6</tspan></text><rect x="27.06" y="394.23" width="83.69" height="22.05" style="fill:#58595b"/><text transform="translate(43.01 409.79)" style="font-size:13.5013427734375px;fill:#fff;font-family:Bebas Neue;font-weight:700">G<tspan x="5.25" y="0">ATE 7</tspan></text><rect x="57.94" y="234.76" width="83.69" height="22.05" style="fill:#58595b"/><text transform="translate(73.89 250.32)" style="font-size:13.5013427734375px;fill:#fff;font-family:Bebas Neue;font-weight:700">G<tspan x="5.25" y="0">ATE 8</tspan></text><rect x="609.99" y="701.98" width="77.66" height="22.05" style="fill:#58595b"/><text transform="translate(648.64 717.54)" style="font-size:13.5013427734375px;fill:#fff;font-family:Bebas Neue;font-weight:700">G<tspan x="5.25" y="0">ATE 3</tspan></text><rect x="231.25" y="121.38" width="338.6" height="543.92" style="fill:#83c69a"/><rect x="320.7" y="181.63" width="165.05" height="19.07" style="fill:#fcee21"/><path d="M250.77,765.51L196,729.29l-20.63-39.78-3.35,1.77-22.38-45.09-4.35,1.65-16.24-49.07-4.71,1.11L112,525.05l5.93-.12L116,494H104.29V458.19a15.61,15.61,0,0,1-1.62.09A14.76,14.76,0,0,1,89.16,449l-0.56-1.43V357.72l1-1.8a13.24,13.24,0,0,1,11.89-7.28,15.37,15.37,0,0,1,2.84.27V314.24h12l1.15-31.05L112,282.9l12.76-75.51,4.58,1.14L144.8,160l4.29,1.75,22.84-46.59L176,117.3,199.3,76l51.64-34.26H556.85L608.5,76l23.31,41.32,4.06-2.17,22.84,46.59L663,160l15.46,48.56,4.58-1.14,12.76,75.51-5.43.29,1.15,31.05h12v34.68a15.36,15.36,0,0,1,2.84-.27,13.24,13.24,0,0,1,11.89,7.28l1,1.8v89.86L718.64,449c-1.36,3.44-5.73,9.26-13.51,9.26a15.61,15.61,0,0,1-1.62-.09V494H691.81l-1.93,31,5.92,0.12-12.4,74.82-4.71-1.11-16.24,49.07-4.35-1.65-22.38,45.09-3.36-1.77-20.63,39.78L557,765.51H250.77Zm251-145.14,2.54-3.29,11-21.14-5.58-2.52,12.38-29.68-6.41-2.21,9.6-40.1,2.25-29.69V325.39l-4.43-32.19-9.82-39.82,6.16-2.12-11.34-32.07,8.17-3.79-9.65-29.32,48.63-24.39-7.65-12.31-9,.63-0.82,3.55-14.85,21.58-27,11.72H311.83l-27-11.72L270,153.56,269.2,150l-9-.63-7.65,12.31,48.63,24.39-9.65,29.32,8.17,3.79-11.34,32.07,6.16,2.12-9.82,39.82-4.43,32.19V491.73l2.25,29.7,9.6,40.09-6.41,2.21,12.38,29.68-5.58,2.52,11,21.14,2.54,3.29h56.8v-0.22H445v0.22h56.8Z" style="fill:#f1f2f2"/><rect x="305.17" y="234.84" width="197.46" height="337.09" style="fill:#333e48"/><polygon points="499.93 537.38 499.93 531.02 499.93 524.3 499.93 517.89 499.93 511.43 499.93 504.81 499.93 498.36 499.93 491.94 499.93 485.27 499.93 478.87 499.93 472.2 499.93 465.79 499.93 459.33 499.93 452.71 499.93 446.25 499.93 439.84 499.93 433.28 499.93 426.76 499.93 420.2 499.93 413.79 499.93 406.88 499.93 400.72 499.93 393.81 499.93 387.39 499.93 380.73 499.93 374.32 499.93 367.65 499.93 361.24 499.93 354.79 499.93 348.17 499.93 341.71 499.93 335.3 499.93 328.74 499.93 322.22 499.93 315.66 499.93 309.25 499.93 302.34 499.93 296.18 499.93 289.26 499.93 282.85 499.93 275.75 499.93 269.78 499.93 237.54 307.87 237.54 307.87 269.78 307.87 275.75 307.87 282.85 307.87 289.26 307.87 296.18 307.87 302.34 307.87 309.25 307.87 315.66 307.87 322.22 307.87 328.74 307.87 335.3 307.87 341.71 307.87 348.17 307.87 354.79 307.87 361.24 307.87 367.65 307.87 374.32 307.87 380.73 307.87 387.39 307.87 393.81 307.87 400.72 307.87 406.88 307.87 413.79 307.87 420.2 307.87 426.76 307.87 433.28 307.87 439.84 307.87 446.25 307.87 452.71 307.87 459.33 307.87 465.79 307.87 472.2 307.87 478.87 307.87 485.27 307.87 491.94 307.87 498.36 307.87 504.81 307.87 511.43 307.87 517.89 307.87 524.3 307.87 531.02 307.87 537.38 307.87 569.23 499.93 569.23 499.93 537.38" style="fill:#f1f2f2"/><rect x="397.81" y="187.15" width="12.17" height="184.74" transform="translate(683.42 -124.38) rotate(90)" style="fill:#00af41"/><rect x="397.81" y="200.22" width="12.17" height="184.74" transform="translate(696.49 -111.3) rotate(90)" style="fill:#00af41"/><rect x="397.81" y="213.55" width="12.17" height="184.74" transform="translate(709.82 -97.98) rotate(90)" style="fill:#00af41"/><rect x="397.81" y="226.62" width="12.17" height="184.74" transform="translate(722.89 -84.9) rotate(90)" style="fill:#00af41"/><rect x="397.81" y="239.6" width="12.17" height="184.74" transform="translate(735.86 -71.93) rotate(90)" style="fill:#00af41"/><rect x="397.81" y="252.67" width="12.17" height="184.74" transform="translate(748.94 -58.86) rotate(90)" style="fill:#00af41"/><rect x="397.81" y="265.54" width="12.17" height="184.74" transform="translate(761.81 -45.98) rotate(90)" style="fill:#00af41"/><rect x="397.81" y="278.62" width="12.17" height="184.74" transform="translate(774.88 -32.91) rotate(90)" style="fill:#00af41"/><rect x="397.81" y="291.69" width="12.17" height="184.74" transform="translate(787.96 -19.83) rotate(90)" style="fill:#00af41"/><rect x="397.81" y="304.77" width="12.17" height="184.74" transform="translate(801.03 -6.76) rotate(90)" style="fill:#00af41"/><rect x="397.81" y="318.09" width="12.17" height="184.74" transform="translate(814.36 6.56) rotate(90)" style="fill:#00af41"/><rect x="397.81" y="331.16" width="12.17" height="184.74" transform="translate(827.43 19.64) rotate(90)" style="fill:#00af41"/><rect x="397.81" y="344.14" width="12.17" height="184.74" transform="translate(840.4 32.61) rotate(90)" style="fill:#00af41"/><rect x="397.81" y="357.21" width="12.17" height="184.74" transform="translate(853.48 45.69) rotate(90)" style="fill:#00af41"/><rect x="397.81" y="370.08" width="12.17" height="184.74" transform="translate(866.35 58.56) rotate(90)" style="fill:#00af41"/><rect x="397.81" y="383.16" width="12.17" height="184.74" transform="translate(879.43 71.63) rotate(90)" style="fill:#00af41"/><rect x="397.81" y="396.24" width="12.17" height="184.74" transform="translate(892.51 84.72) rotate(90)" style="fill:#00af41"/><rect x="397.81" y="409.32" width="12.17" height="184.74" transform="translate(905.58 97.79) rotate(90)" style="fill:#00af41"/><rect x="397.81" y="422.19" width="12.17" height="184.74" transform="translate(918.45 110.66) rotate(90)" style="fill:#00af41"/><rect x="397.81" y="435.26" width="12.17" height="184.74" transform="translate(931.53 123.74) rotate(90)" style="fill:#00af41"/><rect x="388.45" y="164.27" width="30.89" height="184.74" transform="translate(660.54 -147.25) rotate(90)" style="fill:#333e48"/><rect x="388.45" y="457.76" width="30.89" height="184.74" transform="translate(954.02 146.23) rotate(90)" style="fill:#333e48"/><polygon points="394.39 389.26 394.39 375.92 400.86 374.27 395.37 367.34 395.37 363.44 390.59 359.22 390.59 331.51 437.33 370.64 437.33 388.64 434.38 389.6 434.38 415.45 437.33 416.63 437.33 441.06 436.21 440.62 441.56 446.2 441.56 474.55 413.03 446.44 394.39 456.63 394.39 431.36 402.05 427.17 394.39 424.34 394.39 410.02 363.14 406.34 363.14 399.45 394.39 389.26" style="fill:#fae038"/><path d="M429.75,436.25l10.16,10.61v23.74l-26.6-26.21L396,453.85V432.34l10-5.46-10-3.69V408.56l-31.25-3.68v-4.22l30.89-10.08,0.36,0V377.2l7.68-2L397,366.77v-4.07l-4.79-4.21V335l43.45,36.37v16l-3,1v28.17l3,1.18v20.88ZM387.2,401.62L387,399.46,381.87,401Z" style="fill:#02aa54"/><path d="M421.47,437.9l-0.41.22-2.6,1.35,14.33,14.12v-3.86Zm0.16-5.83,15.31,16v15.45l-23.12-22.77L399,448.84V434.1L410.09,428v-2.82L399,421.12V406.65l19.84,7.6V408L368,402.59l8.87-3.11L396,393.59l22.87,2.29V389L399,393.88V379.51l8.16-2.09-7.1-9.92v-6.08l-4.87-4.29V341.4l37.5,31.39v12.48l-3,1v32.34l3,1.18v14.48l-11.08-4.44v2.26ZM410,376.71l5.78-1.48-3.7-3.26-1.56.85-0.52.3v3.59Zm4.89,58.72,2.61-1.43V423.66l11.08,4.44v-5.53l-3-1.18V383.21l3-1v-7.52l-29.2-24.44v5l0.71,0.63v-4.8l9.28,13,15,13.25L410,381v0.35l-0.21-.29-6.6,1.69v5.85L423,383.71V420.3l-19.84-7.6v5.54l11.08,4.09v8.18l-11.08,6.06v5.27ZM418,403.77V400l-21.6-2.16-8.71,2.68Z" style="fill:#fff"/><path d="M367.89,402.33l8.87-3.11L396,393.31l2.79,0.28V379.3l8-2-6.92-9.67v-6l-4.87-4.29V340.82l38,31.85v12.81l-3,1v32l3,1.18v15.06L421.9,430.2V432l15.31,16v16.21l-23.44-23.09-15,8.23V433.94l11.08-6.06v-2.47l-11.08-4.09V406.26l19.84,7.6v-5.57L368,402.86ZM396,393.86l-19.08,5.88-7.72,2.71,49.91,5.35v6.86l-19.84-7.6v13.88L410.37,425v3.18l-11.08,6.06v14.11l14.58-8,22.8,22.46V448.17l-15.31-16v-2.78l11.08,4.44V419.95l-3-1.18V386l3-1V372.92l-37-30.94v15l4.87,4.29v6.12l7.28,10.18-8.34,2.13v13.81l19.84-4.87v7.52l-20.12-2-0.26.06v-0.09Zm22.57-4.51-18,4.42,18,1.8v-6.22Zm-31,10.87,8.76-2.7h0.06l21.85,2.19v4.36l-30.61-3.32Zm8.81-2.14L389,400.36l28.69,3.11v-3.26Zm2.66-42.7v-5.67l0.71,0.6v-0.07l0.12,0.17,28.91,24.2v7.85l-3,1V421.2l3,1.18v6.12l-11.08-4.44v10.1l-14.86,8.13V436.4L414,430.34v-7.83l-11.08-4.09V412.3l19.84,7.6V384.06l-19.84,4.87v-6.41l7-1.79h0l13.93-3.56-14.7-13-8.79-12.28v4.55Zm0.55-4.5v4.25l0.17,0.15V351Zm28.65,24-27.09-22.68,8.36,11.69L425,377.44l-14.72,3.76v1l-0.6-.83-6.22,1.59v5.29l19.84-4.87v37.33l-19.84-7.6V418l11.08,4.09v8.53l-11.08,6.06v4.64l13.77-7.53V423.26l11.08,4.44v-4.94l-3-1.18V383l3-1v-7.19Zm-18.58,2.2V373l0.66-.37,1.73-.94,4.23,3.72Zm0.55-3.78v3.08l4.94-1.26L412,372.3ZM418,439.4l3.52-1.84,11.54,12.06v4.62Zm3.42-1.16-0.22.12-2.27,1.18,13.6,13.4v-3.1Z" style="fill:#fae038"/><path d="M420.61,434l14.25,14.89v9.66L415,438.94l5.12-2.66,0.53-.29v-2Zm-1.05,1.23-3.69,2-14.77,8.08v-10l11.08-6.06v-5.5l-11.08-4.09v-10l19.84,7.6V386.36l-19.84,4.87V381.12l19-4.85-7.15-6.3-3.45,1.53-0.39.21v5.74l-7.41-9.67v-7.71l-4.4-3.88V345.85l33.35,27.92v10l-3,1V420l3,1.18v10l-11.08-4.44v8.5Zm0.53-37.14v8l-41.44-4.5V401.1l17.55-5.41Z" style="fill:#231f20"/><path d="M423.81,410.64a0.79,0.79,0,0,1-.57-0.79v-0.61l0.57,0.21v0.25a0.26,0.26,0,0,0,.16.28q0.12,0,.12-0.06l0-.38,0-.49q0-.71.53-0.52l0.25,0.09a0.89,0.89,0,0,1,.57.79V410l-0.57-.21v-0.25a0.26,0.26,0,0,0-.16-0.28q-0.12,0-.12,0l0,0.42,0,0.49q0,0.71-.57.51Zm-0.57-1.48v-0.61q0-.58.57-0.36l0.16,0.06V409q-0.16-.06-0.16.16v0.25Zm2.3,0.93v0.61q0,0.58-.57.36L424.8,411v-0.72q0.16,0.06.16-.16v-0.25Zm-2.3-7.35v-0.36l1.48-.1,0.82,0.31V403l-1.48.1Zm0-1.08v-0.72l2.3,0.86v0.72Zm2.3,2v0.72l-2.3-.86v-0.72Zm-0.82-8-1.48-1.2v-0.72l2.3,1.87v0.72l-2.3.16v-0.72Zm0-7.2,0.78,1v0.72l-1.11-1.39,0.29-.14Zm-0.08.11-0.29.15-1.15.58v-0.72l0.86-.44v-0.4l-0.86-.32v-0.72l2.3,0.86v0.72l-0.86-.32v0.61ZM424,381l-0.74-.28V380l1.31,0.49v1.37a0.26,0.26,0,0,0,.16.28l0.08,0q0.16,0.06.16-.16v-1.37l0.57,0.21v1.73q0,0.58-.57.36l-0.41-.15a0.58,0.58,0,0,1-.29-0.25,0.27,0.27,0,0,1-.29,0l-0.74-.28v-0.72l0.57,0.21q0.16,0.06.16-.16V381Zm0.74-6.25-1.48-1.2v-0.72l2.3,1.87v0.72l-2.3.16v-0.72Zm0.82,49.42v0.61q0,0.58-.57.36l-0.16-.06v-0.72q0.16,0.06.16-.16v-0.25Zm-2.3-.93v-0.61q0-.58.57-0.36l0.16,0.06V423q-0.16-.06-0.16.16v0.25Zm0.57,1.48a0.79,0.79,0,0,1-.57-0.79V423.3l0.57,0.21v0.25a0.26,0.26,0,0,0,.16.28q0.12,0,.12-0.06l0-.38,0-.49q0-.71.53-0.52l0.25,0.09a0.89,0.89,0,0,1,.57.79v0.61l-0.57-.21v-0.25a0.26,0.26,0,0,0-.16-0.28q-0.12,0-.12,0l0,0.42,0,0.49q0,0.71-.57.51Zm0.9-7.92-1.48-1.2v-0.72l2.3,1.87v0.72l-2.3.16v-0.72Z" style="fill:#fff"/><path d="M317.66,296a0.62,0.62,0,0,0,.5.68v0.42h-3.95v-0.62h3V296h0.44Z" style="fill:#fae038"/><path d="M317.21,300.46a0.94,0.94,0,1,1,0,1.88h-2.05a0.94,0.94,0,1,1,0-1.88h2.05Zm-2.09.62a0.33,0.33,0,1,0,0,.64h2.13a0.33,0.33,0,1,0,0-.64h-2.13Z" style="fill:#fae038"/><path d="M317.66,505a0.62,0.62,0,0,0,.5.68v0.42h-3.95V505.5h3V505h0.44Z" style="fill:#fae038"/><path d="M317.21,509.44a0.94,0.94,0,1,1,0,1.88h-2.05a0.94,0.94,0,1,1,0-1.88h2.05Zm-2.09.62a0.33,0.33,0,1,0,0,.64h2.13a0.33,0.33,0,1,0,0-.64h-2.13Z" style="fill:#fae038"/><path d="M317.63,322.54a0.32,0.32,0,0,0-.39-0.32h-0.42v-0.59h0.38a0.93,0.93,0,1,1,0,1.85c-1.24,0-1.7-1.23-2.35-1.23h-0.08v1.17h-0.56v-1.79h0.48c1.16,0,1.35,1.23,2.49,1.23C317.54,322.86,317.63,322.73,317.63,322.54Z" style="fill:#fae038"/><path d="M317.21,326.43a0.94,0.94,0,1,1,0,1.88h-2.05a0.94,0.94,0,1,1,0-1.88h2.05Zm-2.09.62a0.33,0.33,0,1,0,0,.64h2.13a0.33,0.33,0,1,0,0-.64h-2.13Z" style="fill:#fae038"/><path d="M317.63,479.38a0.32,0.32,0,0,0-.39-0.32h-0.42v-0.59h0.38a0.93,0.93,0,1,1,0,1.85c-1.24,0-1.7-1.23-2.35-1.23h-0.08v1.17h-0.56v-1.79h0.48c1.16,0,1.35,1.23,2.49,1.23C317.54,479.71,317.63,479.58,317.63,479.38Z" style="fill:#fae038"/><path d="M317.21,483.28a0.94,0.94,0,1,1,0,1.88h-2.05a0.94,0.94,0,1,1,0-1.88h2.05Zm-2.09.62a0.33,0.33,0,1,0,0,.64h2.13a0.33,0.33,0,1,0,0-.64h-2.13Z" style="fill:#fae038"/><path d="M317.18,349.23c0.36,0,.45-0.12.45-0.32a0.32,0.32,0,0,0-.39-0.32H317V348h0.21a0.93,0.93,0,1,1,0,1.85h-0.1a0.77,0.77,0,0,1-.81-0.43,0.81,0.81,0,0,1-.83.43h-0.31a0.93,0.93,0,1,1,0-1.85h0.33v0.59h-0.37a0.32,0.32,0,0,0-.39.32c0,0.2.1,0.32,0.44,0.32h0.31c0.37,0,.5-0.12.5-0.41v-0.21h0.56v0.24a0.34,0.34,0,0,0,.42.37h0.22Z" style="fill:#fae038"/><path d="M317.21,352.84a0.94,0.94,0,1,1,0,1.88h-2.05a0.94,0.94,0,1,1,0-1.88h2.05Zm-2.09.62a0.33,0.33,0,1,0,0,.64h2.13a0.33,0.33,0,1,0,0-.64h-2.13Z" style="fill:#fae038"/><path d="M317.18,453.61c0.36,0,.45-0.12.45-0.32a0.32,0.32,0,0,0-.39-0.32H317v-0.59h0.21a0.93,0.93,0,1,1,0,1.85h-0.1a0.77,0.77,0,0,1-.81-0.43,0.81,0.81,0,0,1-.83.43h-0.31a0.93,0.93,0,1,1,0-1.85h0.33V453h-0.37a0.32,0.32,0,0,0-.39.32c0,0.2.1,0.32,0.44,0.32h0.31c0.37,0,.5-0.12.5-0.41V453h0.56v0.24a0.34,0.34,0,0,0,.42.37h0.22Z" style="fill:#fae038"/><path d="M317.21,457.21a0.94,0.94,0,1,1,0,1.88h-2.05a0.94,0.94,0,1,1,0-1.88h2.05Zm-2.09.62a0.33,0.33,0,1,0,0,.64h2.13a0.33,0.33,0,1,0,0-.64h-2.13Z" style="fill:#fae038"/><path d="M315.49,373.61l2.67,1.13v0.68h-2.67v0.29h-0.56v-0.29h-0.72v-0.61h0.72v-1.2h0.56Zm0,1.2H317l-1.48-.63v0.63Z" style="fill:#fae038"/><path d="M317.21,378.56a0.94,0.94,0,1,1,0,1.88h-2.05a0.94,0.94,0,1,1,0-1.88h2.05Zm-2.09.62a0.33,0.33,0,1,0,0,.64h2.13a0.33,0.33,0,1,0,0-.64h-2.13Z" style="fill:#fae038"/><path d="M315.49,426.2l2.67,1.13V428h-2.67v0.29h-0.56V428h-0.72v-0.61h0.72v-1.2h0.56Zm0,1.2H317l-1.48-.63v0.63Z" style="fill:#fae038"/><path d="M317.21,431.15a0.94,0.94,0,1,1,0,1.88h-2.05a0.94,0.94,0,1,1,0-1.88h2.05Zm-2.09.62a0.33,0.33,0,1,0,0,.64h2.13a0.33,0.33,0,1,0,0-.64h-2.13Z" style="fill:#fae038"/><path d="M315.48,400.84h-0.37a0.33,0.33,0,1,0,0,.64H316a0.33,0.33,0,1,0,0-.64h-0.12v-0.59l2.29,0.11V402h-0.56v-1.08l-0.94-.05a0.59,0.59,0,0,1,.29.54,0.73,0.73,0,0,1-.9.69h-0.88a0.93,0.93,0,1,1,0-1.85h0.33v0.59Z" style="fill:#fae038"/><path d="M317.21,405.08a0.94,0.94,0,1,1,0,1.88h-2.05a0.94,0.94,0,1,1,0-1.88h2.05Zm-2.09.62a0.33,0.33,0,1,0,0,.64h2.13a0.33,0.33,0,1,0,0-.64h-2.13Z" style="fill:#fae038"/><path d="M490.14,511.32a0.62,0.62,0,0,0-.5-0.68v-0.42h3.95v0.62h-3v0.48h-0.44Z" style="fill:#fae038"/><path d="M490.59,506.9a0.94,0.94,0,1,1,0-1.88h2.05a0.94,0.94,0,1,1,0,1.88h-2.05Zm2.09-.62a0.33,0.33,0,1,0,0-.64h-2.13a0.33,0.33,0,1,0,0,.64h2.13Z" style="fill:#fae038"/><path d="M490.14,302.34a0.62,0.62,0,0,0-.5-0.68v-0.42h3.95v0.62h-3v0.48h-0.44Z" style="fill:#fae038"/><path d="M490.59,297.92a0.94,0.94,0,1,1,0-1.88h2.05a0.94,0.94,0,1,1,0,1.88h-2.05Zm2.09-.62a0.33,0.33,0,1,0,0-.64h-2.13a0.33,0.33,0,1,0,0,.64h2.13Z" style="fill:#fae038"/><path d="M490.16,484.83a0.32,0.32,0,0,0,.39.32H491v0.59h-0.38a0.93,0.93,0,1,1,0-1.85c1.24,0,1.7,1.23,2.35,1.23H493v-1.17h0.56v1.79H493.1c-1.16,0-1.35-1.23-2.49-1.23C490.25,484.51,490.16,484.63,490.16,484.83Z" style="fill:#fae038"/><path d="M490.59,480.93a0.94,0.94,0,1,1,0-1.88h2.05a0.94,0.94,0,1,1,0,1.88h-2.05Zm2.09-.62a0.33,0.33,0,1,0,0-.64h-2.13a0.33,0.33,0,1,0,0,.64h2.13Z" style="fill:#fae038"/><path d="M490.16,328a0.32,0.32,0,0,0,.39.32H491v0.59h-0.38a0.93,0.93,0,1,1,0-1.85c1.24,0,1.7,1.23,2.35,1.23H493v-1.17h0.56v1.79H493.1c-1.16,0-1.35-1.23-2.49-1.23C490.25,327.66,490.16,327.78,490.16,328Z" style="fill:#fae038"/><path d="M490.59,324.08a0.94,0.94,0,1,1,0-1.88h2.05a0.94,0.94,0,1,1,0,1.88h-2.05Zm2.09-.62a0.33,0.33,0,1,0,0-.64h-2.13a0.33,0.33,0,1,0,0,.64h2.13Z" style="fill:#fae038"/><path d="M490.61,458.13c-0.36,0-.45.12-0.45,0.32a0.32,0.32,0,0,0,.39.32h0.25v0.59h-0.21a0.93,0.93,0,1,1,0-1.85h0.1a0.77,0.77,0,0,1,.81.43,0.81,0.81,0,0,1,.83-0.43h0.31a0.93,0.93,0,1,1,0,1.85h-0.33v-0.59h0.37a0.32,0.32,0,0,0,.39-0.32c0-.2-0.1-0.32-0.44-0.32h-0.31c-0.37,0-.5.12-0.5,0.41v0.21h-0.56V458.5a0.34,0.34,0,0,0-.42-0.37h-0.22Z" style="fill:#fae038"/><path d="M490.59,454.53a0.94,0.94,0,1,1,0-1.88h2.05a0.94,0.94,0,1,1,0,1.88h-2.05Zm2.09-.62a0.33,0.33,0,1,0,0-.64h-2.13a0.33,0.33,0,1,0,0,.64h2.13Z" style="fill:#fae038"/><path d="M490.61,353.76c-0.36,0-.45.12-0.45,0.32a0.32,0.32,0,0,0,.39.32h0.25V355h-0.21a0.93,0.93,0,1,1,0-1.85h0.1a0.77,0.77,0,0,1,.81.43,0.81,0.81,0,0,1,.83-0.43h0.31a0.93,0.93,0,1,1,0,1.85h-0.33V354.4h0.37a0.32,0.32,0,0,0,.39-0.32c0-.2-0.1-0.32-0.44-0.32h-0.31c-0.37,0-.5.12-0.5,0.41v0.21h-0.56v-0.24a0.34,0.34,0,0,0-.42-0.37h-0.22Z" style="fill:#fae038"/><path d="M490.59,350.15a0.94,0.94,0,1,1,0-1.88h2.05a0.94,0.94,0,1,1,0,1.88h-2.05Zm2.09-.62a0.33,0.33,0,1,0,0-.64h-2.13a0.33,0.33,0,1,0,0,.64h2.13Z" style="fill:#fae038"/><path d="M492.31,433.75l-2.67-1.13v-0.68h2.67v-0.29h0.56v0.29h0.72v0.61h-0.72v1.2h-0.56Zm0-1.2h-1.48l1.48,0.63v-0.63Z" style="fill:#fae038"/><path d="M490.59,428.8a0.94,0.94,0,1,1,0-1.88h2.05a0.94,0.94,0,1,1,0,1.88h-2.05Zm2.09-.62a0.33,0.33,0,1,0,0-.64h-2.13a0.33,0.33,0,1,0,0,.64h2.13Z" style="fill:#fae038"/><path d="M492.31,381.16L489.64,380v-0.68h2.67v-0.29h0.56v0.29h0.72V380h-0.72v1.2h-0.56Zm0-1.2h-1.48l1.48,0.63V380Z" style="fill:#fae038"/><path d="M490.59,376.22a0.94,0.94,0,1,1,0-1.88h2.05a0.94,0.94,0,1,1,0,1.88h-2.05Zm2.09-.62a0.33,0.33,0,1,0,0-.64h-2.13a0.33,0.33,0,1,0,0,.64h2.13Z" style="fill:#fae038"/><path d="M492.31,406.52h0.37a0.33,0.33,0,1,0,0-.64h-0.87a0.33,0.33,0,1,0,0,.64h0.12v0.59l-2.29-.11v-1.64h0.56v1.08l0.94,0.05a0.59,0.59,0,0,1-.29-0.54,0.73,0.73,0,0,1,.9-0.69h0.88a0.93,0.93,0,1,1,0,1.85h-0.33v-0.59Z" style="fill:#fae038"/><path d="M490.59,402.28a0.94,0.94,0,1,1,0-1.88h2.05a0.94,0.94,0,1,1,0,1.88h-2.05Zm2.09-.62a0.33,0.33,0,1,0,0-.64h-2.13a0.33,0.33,0,1,0,0,.64h2.13Z" style="fill:#fae038"/><path d="M344.36,254.42C344.69,261,338.5,266,333.08,268c-5.43-2-11.61-7-11.29-13.62L323,244.1h20.16Z" style="fill:#fae038"/><path d="M342.47,244.88l1.13,9.62a9.29,9.29,0,0,1,0,1c-0.62,5.7-5.48,9.8-10.5,11.69-5-1.89-9.87-6-10.5-11.69a9.29,9.29,0,0,1,0-1l1.13-9.62h18.8Z" style="fill:#02aa54"/><path d="M341.6,248.34l0.14,1.53,0.51,5.4A8.82,8.82,0,0,1,341.2,259a12.56,12.56,0,0,1-1.17,1.89,14.27,14.27,0,0,1-4.8,4,18,18,0,0,1-1.79.83l-0.36.14q-0.89-.33-1.67-0.72a16.55,16.55,0,0,1-1.47-.82,13.13,13.13,0,0,1-5.53-6.64,8.87,8.87,0,0,1-.48-2,3.15,3.15,0,0,1,0-.47l1-9.09h16.46Z" style="fill:#fff"/><path d="M338.72,251.17h0.72l0.17,0.8,0.89-.9,0.39,4.31a5.55,5.55,0,0,1-.29,1.66l-1.36-5.66h-1.8l0.34-2h-1.66l-0.19.69h-6.07l0.4,1.57h5.48l-2.13,12.64-0.6.24q-0.77-.29-1.45-0.63l2-11.8H332l-1.84,11a10.86,10.86,0,0,1-4.86-6.73l1.17-2h0.73l1.42-1.25h-0.82l0-.05-0.25-.48,0.74-1.26,2.12,8.47,0.67-3.94-1.65-6.45h-1.63l-2.39,4.06,0.69-5.82h14.13l0.19,1.81Zm0.83,8.18a11.8,11.8,0,0,1-4.15,4l1.81-10.63H338Z" style="fill:#231f20"/><path d="M336.08,247a0.2,0.2,0,0,1-.2.15h-0.16l0.06-.15h0.07a0.07,0.07,0,0,0,.07,0s0,0,0,0h-0.23q-0.18,0-.14-0.14l0-.06a0.23,0.23,0,0,1,.2-0.15h0.16l-0.06.15H335.8a0.07,0.07,0,0,0-.07,0s0,0,0,0H336q0.18,0,.13.15Zm-0.38.15h-0.16q-0.15,0-.09-0.15l0,0h0.19s0,0,0,0h0.07Zm0.24-.59h0.16q0.15,0,.09.15l0,0H336s0,0,0,0h-0.07Zm-1.9.59h-0.09l0-.38,0.08-.21h0.09l0,0.38Zm-0.28,0h-0.19l0.22-.59H334Zm0.52-.59h0.19l-0.22.59h-0.19Zm-2.06.21-0.31.38h-0.19l0.48-.59h0.19l0,0.59h-0.19Zm-1.86,0,0.25-.2h0.19l-0.36.29,0-.07h0Zm0,0,0,0.07,0.15,0.3h-0.19l-0.11-.22h-0.1l-0.08.22h-0.19l0.22-.59h0.19l-0.08.22h0.16Zm-2,.18-0.07.19h-0.19l0.13-.34h0.35a0.07,0.07,0,0,0,.07,0v0s0,0,0,0h-0.35l0.06-.15h0.45q0.15,0,.09.15l0,0.11a0.15,0.15,0,0,1-.06.07,0.07,0.07,0,0,1,0,.07l-0.07.19h-0.19l0.06-.15s0,0,0,0h-0.17Zm-1.61-.19-0.31.38h-0.19l0.48-.59H327l0,0.59h-0.19Zm12.76-.21h0.16q0.15,0,.09.15l0,0h-0.19s0,0,0,0h-0.07Zm-0.24.59h-0.16q-0.15,0-.09-0.15l0,0h0.19s0,0,0,0h0.07Zm0.38-.15a0.2,0.2,0,0,1-.2.15h-0.16l0.06-.15h0.07a0.07,0.07,0,0,0,.07,0s0,0,0,0H339.3q-0.18,0-.14-0.14l0-.06a0.23,0.23,0,0,1,.2-0.15h0.16l-0.06.15h-0.07a0.07,0.07,0,0,0-.07,0s0,0,0,0h0.23q0.18,0,.13.15Zm-2-.23-0.31.38h-0.19l0.48-.59h0.19l0,0.59h-0.19Z" style="fill:#231f20"/><path d="M360.73,263.62h-2.39l-0.41-2.74H355l-0.41,2.74h-2.18l2.42-15.1h3.47Zm-5.42-4.79h2.29l-1.14-7.64Z" style="fill:#fff"/><path d="M367.65,263.62a4.65,4.65,0,0,1-.22-1.86v-2.37c0-1.4-.48-1.92-1.55-1.92h-0.82v6.15h-2.37v-15.1h3.58c2.46,0,3.52,1.14,3.52,3.47v1.19c0,1.55-.5,2.57-1.55,3.06,1.19,0.5,1.58,1.64,1.58,3.21v2.33a4.44,4.44,0,0,0,.26,1.83h-2.42Zm-2.59-12.94v4.64H366c0.89,0,1.42-.39,1.42-1.6v-1.49c0-1.08-.37-1.55-1.21-1.55h-1.14Z" style="fill:#fff"/><path d="M375.33,257.6L374.6,259v4.64h-2.37v-15.1h2.37v6.58l3.11-6.58h2.37l-3.3,6.73,3.3,8.37h-2.44Z" style="fill:#fff"/><path d="M389.7,263.62H387.3l-0.41-2.74H384l-0.41,2.74h-2.18l2.42-15.1h3.47Zm-5.42-4.79h2.29l-1.14-7.64Z" style="fill:#fff"/><path d="M393.77,252.68v10.94h-2.14v-15.1h3l2.44,9v-9h2.11v15.1h-2.44Z" style="fill:#fff"/><path d="M404.92,248.34c2.31,0,3.5,1.38,3.5,3.8v0.47h-2.24V252c0-1.08-.43-1.49-1.19-1.49s-1.19.41-1.19,1.49c0,3.11,4.64,3.69,4.64,8,0,2.42-1.21,3.8-3.54,3.8s-3.54-1.38-3.54-3.8v-0.93h2.24v1.08c0,1.08.47,1.47,1.23,1.47s1.23-.39,1.23-1.47c0-3.11-4.64-3.69-4.64-8C401.43,249.73,402.61,248.34,404.92,248.34Z" style="fill:#fff"/><path d="M418.34,263.62h-2.39l-0.41-2.74h-2.91l-0.41,2.74H410l2.42-15.1h3.47Zm-5.42-4.79h2.29l-1.14-7.64Z" style="fill:#fff"/><path d="M423.49,248.34c2.31,0,3.5,1.38,3.5,3.8v0.47h-2.24V252c0-1.08-.43-1.49-1.19-1.49s-1.19.41-1.19,1.49c0,3.11,4.64,3.69,4.64,8,0,2.42-1.21,3.8-3.54,3.8s-3.54-1.38-3.54-3.8v-0.93h2.24v1.08c0,1.08.47,1.47,1.23,1.47s1.23-.39,1.23-1.47c0-3.11-4.64-3.69-4.64-8C420,249.73,421.18,248.34,423.49,248.34Z" style="fill:#fff"/><path d="M441.11,263.62h-2.39l-0.41-2.74H435.4L435,263.62h-2.18l2.42-15.1h3.47Zm-5.42-4.79H438l-1.14-7.64Z" style="fill:#fff"/><path d="M442.38,248.52h7.34v2.16h-2.48v12.94h-2.37V250.68h-2.48v-2.16Z" style="fill:#fff"/><path d="M450.92,248.52h7.34v2.16h-2.48v12.94h-2.37V250.68h-2.48v-2.16Z" style="fill:#fff"/><path d="M467,263.62h-2.39l-0.41-2.74H461.3l-0.41,2.74h-2.18l2.42-15.1h3.47Zm-5.42-4.79h2.29l-1.14-7.64Z" style="fill:#fff"/><path d="M475.86,258v2c0,2.42-1.21,3.8-3.54,3.8s-3.54-1.38-3.54-3.8v-7.85c0-2.42,1.21-3.8,3.54-3.8s3.54,1.38,3.54,3.8v1.47h-2.24V252c0-1.08-.48-1.49-1.23-1.49s-1.23.41-1.23,1.49v8.16c0,1.08.47,1.47,1.23,1.47s1.23-.39,1.23-1.47V258h2.24Z" style="fill:#fff"/><path d="M481.27,257.6L480.54,259v4.64h-2.37v-15.1h2.37v6.58l3.11-6.58H486l-3.3,6.73,3.3,8.37h-2.44Z" style="fill:#fff"/><path d="M463.43,552.35c-0.32-6.62,5.86-11.58,11.29-13.62,5.43,2,11.61,7,11.29,13.62l-1.21,10.33H464.64Z" style="fill:#fae038"/><path d="M465.32,561.9l-1.13-9.62a9.29,9.29,0,0,1,0-1c0.62-5.7,5.48-9.8,10.5-11.69,5,1.89,9.87,6,10.5,11.69a9.29,9.29,0,0,1,0,1l-1.13,9.62h-18.8Z" style="fill:#02aa54"/><path d="M466.19,558.43L466,556.9l-0.51-5.4a8.82,8.82,0,0,1,1.06-3.72,12.56,12.56,0,0,1,1.17-1.89,14.27,14.27,0,0,1,4.8-4,18,18,0,0,1,1.79-.83l0.36-.14q0.89,0.33,1.67.72a16.55,16.55,0,0,1,1.47.82,13.13,13.13,0,0,1,5.53,6.64,8.87,8.87,0,0,1,.48,2,3.15,3.15,0,0,1,0,.47l-1,9.09H466.41Z" style="fill:#fff"/><path d="M469.08,555.6h-0.72l-0.17-.8-0.89.9-0.39-4.31a5.55,5.55,0,0,1,.29-1.66l1.36,5.66h1.8l-0.34,2h1.66l0.19-.69h6.07l-0.4-1.57H472l2.13-12.64,0.6-.24q0.77,0.29,1.45.63l-2,11.8h1.6l1.84-11a10.86,10.86,0,0,1,4.86,6.73l-1.17,2h-0.73l-1.42,1.25H480l0,0.05,0.25,0.48-0.74,1.26L477.46,547,476.79,551l1.65,6.45h1.63l2.39-4.06-0.69,5.82H467.63l-0.19-1.81Zm-0.83-8.18a11.8,11.8,0,0,1,4.15-4l-1.81,10.63h-0.74Z" style="fill:#231f20"/><path d="M471.71,559.77a0.2,0.2,0,0,1,.2-0.15h0.16l-0.06.15H472a0.07,0.07,0,0,0-.07,0s0,0,0,0h0.23q0.18,0,.14.14l0,0.06a0.23,0.23,0,0,1-.2.15h-0.16l0.06-.15H472a0.07,0.07,0,0,0,.07,0s0,0,0,0h-0.23q-0.18,0-.13-0.15Zm0.38-.15h0.16q0.15,0,.09.15l0,0h-0.19s0,0,0,0H472Zm-0.24.59H471.7q-0.15,0-.09-0.15l0,0h0.19s0,0,0,0h0.07Zm1.9-.59h0.09l0,0.38-0.08.21H473.7l0-.38Zm0.28,0h0.19l-0.22.59h-0.19Zm-0.52.59h-0.19l0.22-.59h0.19Zm2.06-.21,0.31-.38h0.19l-0.48.59H475.4l0-.59h0.19Zm1.86,0-0.25.2H477l0.36-.29,0,0.07h0Zm0,0,0-.07-0.15-.3h0.19l0.11,0.22h0.1l0.08-.22h0.19l-0.22.59h-0.19l0.08-.22H477.4Zm2-.18,0.07-.19h0.19l-0.13.34h-0.35a0.07,0.07,0,0,0-.07,0v0s0,0,0,0h0.35l-0.06.15H479q-0.15,0-.09-0.15l0-.11a0.15,0.15,0,0,1,.06-0.07,0.07,0.07,0,0,1,0-.07l0.07-.19h0.19l-0.06.15s0,0,0,0h0.17ZM481,560l0.31-.38h0.19l-0.48.59h-0.19l0-.59H481Zm-12.76.21h-0.16q-0.15,0-.09-0.15l0,0h0.19s0,0,0,0h0.07Zm0.24-.59h0.16q0.15,0,.09.15l0,0h-0.19s0,0,0,0h-0.07Zm-0.38.15a0.2,0.2,0,0,1,.2-0.15h0.16l-0.06.15h-0.07a0.07,0.07,0,0,0-.07,0s0,0,0,0h0.23q0.18,0,.14.14l0,0.06a0.23,0.23,0,0,1-.2.15h-0.16l0.06-.15h0.07a0.07,0.07,0,0,0,.07,0s0,0,0,0h-0.23q-0.18,0-.13-0.15Zm2,0.23,0.31-.38h0.19l-0.48.59H470l0-.59h0.19Z" style="fill:#231f20"/><path d="M447.06,543.15h2.39l0.41,2.74h2.91l0.41-2.74h2.18L453,558.25h-3.47Zm5.42,4.79h-2.29l1.14,7.64Z" style="fill:#fff"/><path d="M440.14,543.15a4.65,4.65,0,0,1,.22,1.86v2.37c0,1.4.48,1.92,1.55,1.92h0.82v-6.15h2.37v15.1h-3.58c-2.46,0-3.52-1.14-3.52-3.47v-1.19c0-1.55.5-2.57,1.55-3.06-1.19-.5-1.58-1.64-1.58-3.21V545a4.44,4.44,0,0,0-.26-1.83h2.42Zm2.59,12.94v-4.64H441.8c-0.89,0-1.42.39-1.42,1.6v1.49c0,1.08.37,1.55,1.21,1.55h1.14Z" style="fill:#fff"/><path d="M432.46,549.17l0.73-1.38v-4.64h2.37v15.1H433.2v-6.58l-3.11,6.58h-2.37l3.3-6.73-3.3-8.37h2.44Z" style="fill:#fff"/><path d="M418.1,543.15h2.39l0.41,2.74h2.91l0.41-2.74h2.18L424,558.25h-3.47Zm5.42,4.79h-2.29l1.14,7.64Z" style="fill:#fff"/><path d="M414,554.09V543.15h2.14v15.1h-3l-2.44-9v9h-2.11v-15.1h2.44Z" style="fill:#fff"/><path d="M402.87,558.43c-2.31,0-3.5-1.38-3.5-3.8v-0.47h2.24v0.63c0,1.08.43,1.49,1.19,1.49s1.19-.41,1.19-1.49c0-3.11-4.64-3.69-4.64-8,0-2.42,1.21-3.8,3.54-3.8s3.54,1.38,3.54,3.8v0.93h-2.24v-1.08c0-1.08-.47-1.47-1.23-1.47s-1.23.39-1.23,1.47c0,3.11,4.64,3.69,4.64,8C406.37,557,405.18,558.43,402.87,558.43Z" style="fill:#fff"/><path d="M389.46,543.15h2.39l0.41,2.74h2.91l0.41-2.74h2.18l-2.42,15.1h-3.47Zm5.42,4.79h-2.29l1.14,7.64Z" style="fill:#fff"/><path d="M384.3,558.43c-2.31,0-3.5-1.38-3.5-3.8v-0.47h2.24v0.63c0,1.08.43,1.49,1.19,1.49s1.19-.41,1.19-1.49c0-3.11-4.64-3.69-4.64-8,0-2.42,1.21-3.8,3.54-3.8s3.54,1.38,3.54,3.8v0.93h-2.24v-1.08c0-1.08-.47-1.47-1.23-1.47s-1.23.39-1.23,1.47c0,3.11,4.64,3.69,4.64,8C387.8,557,386.61,558.43,384.3,558.43Z" style="fill:#fff"/><path d="M366.68,543.15h2.39l0.41,2.74h2.91l0.41-2.74H375l-2.42,15.1H369.1Zm5.42,4.79h-2.29l1.14,7.64Z" style="fill:#fff"/><path d="M365.41,558.25h-7.34V556.1h2.48V543.15h2.37V556.1h2.48v2.16Z" style="fill:#fff"/><path d="M356.87,558.25h-7.34V556.1H352V543.15h2.37V556.1h2.48v2.16Z" style="fill:#fff"/><path d="M340.78,543.15h2.39l0.41,2.74h2.91l0.41-2.74h2.18l-2.42,15.1h-3.47Zm5.42,4.79h-2.29l1.14,7.64Z" style="fill:#fff"/><path d="M331.93,548.78v-2c0-2.42,1.21-3.8,3.54-3.8s3.54,1.38,3.54,3.8v7.85c0,2.42-1.21,3.8-3.54,3.8s-3.54-1.38-3.54-3.8v-1.47h2.24v1.62c0,1.08.48,1.49,1.23,1.49s1.23-.41,1.23-1.49v-8.16c0-1.08-.47-1.47-1.23-1.47s-1.23.39-1.23,1.47v2.16h-2.24Z" style="fill:#fff"/><path d="M326.52,549.17l0.73-1.38v-4.64h2.37v15.1h-2.37v-6.58l-3.11,6.58h-2.37l3.3-6.73-3.3-8.37h2.44Z" style="fill:#fff"/><path d="M715.85,357.21a10.48,10.48,0,0,0-9.51-5.86,15,15,0,0,0-5.54,1.18V316.94H688.9l-1.34-36.31,5.06-.27-11.77-69.65-4.2,1-15.34-48.19-3.91,1.6-22.72-46.34-3.92,2.1L609,82.34h0l-2.52-4.47-3.37-2.23h0L559.59,46.78h0L556,44.42H251.76l-3.55,2.36h0L204.7,75.64h0l-3.37,2.23-2.52,4.47h0L177,120.93l-3.92-2.1L150.4,165.18l-3.91-1.6-15.34,48.19-4.2-1-11.77,69.65,5.06,0.27-1.34,36.31H107v35.59a15,15,0,0,0-5.54-1.18,10.48,10.48,0,0,0-9.51,5.86l-0.65,1.2v88.67l0.38,1a12,12,0,0,0,11,7.55,13.82,13.82,0,0,0,4.32-.72v36.42h11.53l2.26,36.3-5.62.12,11.41,68.89,4.31-1L147,644.31l4-1.52,22.24,44.81,3.31-1.75,20.62,39.76h0l0.94,1.81,5,3.29h0l44,29.14,4.47,3H556.21l4.47-3h0l44-29.14h0l5-3.29h0l0.94-1.81,20.62-39.76,3.31,1.75,22.24-44.81,4,1.52,16.13-48.74,4.31,1,11.41-68.89-5.62-.12,2.26-36.3h11.53V454.85a13.8,13.8,0,0,0,4.32.72,12,12,0,0,0,11-7.55l0.38-1V358.41ZM480.23,623.07h-38v-0.22H365.53v0.22H304.71l-3.5-4.53-12.43-23.89,5.79-2.61L282.1,562.12l6.81-2.35-9.08-37.92-2.28-30V325.2h0L282,292.69l9.26-37.56-6.4-2.2,11.43-32.32-8.12-3.76,9.67-29.39-49.19-24.67,10.07-16.2,12.64,0.88,1.15,5L286.65,173l25.74,11.19h183L521.14,173l14.12-20.52,1.15-5,12.64-.88,10.07,16.2-49.19,24.67,9.67,29.39-8.12,3.76,11.43,32.32-6.4,2.2,9.26,37.56,4.48,32.51h0V491.84l-2.27,30-9.08,37.92,6.81,2.34L513.22,592l5.79,2.61-12.43,23.89-3.5,4.53H480.23Z" style="fill:#0b67b2"/><polygon id="two" points="531.03 217.14 566.47 200.94 602.58 193.17 657.94 170.56 672.28 215.62 595.5 235.37 580.31 236.21 542.67 248.53 531.03 217.14" style="fill:#d1d3d3"/><polygon id="one" points="516.51 189.97 567.99 164.15 566.3 161.28 632.29 126 653.72 169.72 599.54 191.15 566.8 197.56 525.46 217.14 516.51 189.97" style="fill:#d1d3d3"/><polygon id="three" points="543.51 250.22 580.98 237.9 596.68 237.07 676.5 217.14 686.29 275.06 617.6 278.74 586.89 277.89 550.43 285.21 543.51 250.22" style="fill:#d1d3d3"/><polygon id="four" points="550.77 287.23 587.73 279.75 617.77 281.15 682.07 278.06 683.59 319.24 618.28 319.24 590.6 316.51 552.12 318.23 550.77 287.23" style="fill:#d1d3d3"/><path id="five" d="M552.29,320.52l37.47-1.28,30.88,2.87H695.4v40.17s11.31-10.88,15.7-2.74V377.8H608.66l-19.07-3.71h-37.3V320.52Z" style="fill:#00af41"/><polygon id="six" points="552.29 375.95 588.91 375.95 609.33 379.83 711.1 379.83 711.1 433.33 615.75 433.33 590.77 439.91 552.85 439.91 552.29 375.95" style="fill:#00af41"/><path id="seven" d="M552.29,441.77h40.17l25-6.58H711.1v10.63s-3.88,9.85-15.7-.9v40.73h-81l-23,5.91H552.29V441.77Z" style="fill:#00af41"/><polygon id="eight" points="552.29 493.57 591.78 493.57 615.58 487.33 684.1 487.33 681.4 530.71 611.53 529.02 586.89 535.1 550.43 528.01 552.29 493.57" style="fill:#d1d3d3"/><polygon id="nine" points="550.43 530.03 586.89 537.79 612.54 531.21 686.29 532.73 676.84 589.77 597.01 571.04 579.8 574.42 543.85 562.6 550.43 530.03" style="fill:#d1d3d3"/><polygon id="ten" points="543.43 563.95 579.97 576.11 597.52 572.39 672.62 591.13 657.43 637.03 582.33 608.51 566.97 609.35 529.34 593.15 543.43 563.95" style="fill:#d1d3d3"/><polygon id="eleven" points="528.75 594.75 566.97 611.12 582.58 610.37 652.96 638.13 632.17 680.01 516.29 618.91 528.75 594.75" style="fill:#d1d3d3"/><polygon id="twelve" points="512.63 619.31 628.07 680.01 605.45 723.61 545.03 663.7 531.36 655.09 508.07 625.22 512.63 619.31" style="fill:#d1d3d3"/><polygon points="515.25 618.42 527.95 594.33 525.63 593.4 513.14 617.41 515.25 618.42" style="fill:#d1d3d3"/><polygon points="528.4 592.73 542.5 563.56 532.38 559.9 520.23 589.04 528.4 592.73" style="fill:#d1d3d3"/><polygon points="542.9 562.1 549.14 529.81 532.43 526.15 525.28 556.03 542.9 562.1" style="fill:#d1d3d3"/><polygon points="549.14 527.84 533.16 524.46 535.53 493.3 551.05 493.63 549.14 527.84" style="fill:#d1d3d3"/><rect x="535.64" y="441.82" width="15.41" height="49.73" style="fill:#00af41"/><rect x="535.64" y="375.95" width="15.41" height="63.96" style="fill:#00af41"/><polygon points="535.64 321.61 550.77 320.85 550.77 374.51 535.64 374.51 535.64 321.61" style="fill:#fcee21"/><polygon points="550.43 318.34 533.57 319.36 531.07 291.23 548.91 287.94 550.43 318.34" style="fill:#fcee21"/><polygon points="548.66 285.54 530.52 289.2 522.92 258.4 542.33 251.74 548.66 285.54" style="fill:#fcee21"/><polygon points="529.68 217.9 541.32 249.29 528.92 253.51 518.21 223.21 529.68 217.9" style="fill:#fcee21"/><polygon id="tren-one" points="291.28 189.97 239.81 164.15 241.5 161.28 175.51 126 154.07 169.72 208.25 191.15 240.99 197.56 282.34 217.14 291.28 189.97" style="fill:#d1d3d3"/><polygon id="trenta" points="276.77 217.14 241.33 200.94 205.21 193.17 149.85 170.56 135.51 215.62 212.3 235.37 227.49 236.21 265.12 248.53 276.77 217.14" style="fill:#d1d3d3"/><polygon id="ben-nine" points="264.28 250.22 226.81 237.9 211.12 237.07 131.29 217.14 121.5 275.06 190.19 278.74 220.91 277.89 257.36 285.21 264.28 250.22" style="fill:#d1d3d3"/><polygon id="ben-eigth" points="257.02 287.23 220.06 279.75 190.02 281.15 125.72 278.06 124.2 319.24 189.51 319.24 217.19 316.51 255.67 318.23 257.02 287.23" style="fill:#d1d3d3"/><path id="ben-seven" d="M255.5,320.52L218,319.24l-30.88,2.87H112.39v40.17s-11.31-10.88-15.7-2.74V377.8H199.13l19.07-3.71h37.3V320.52Z" style="fill:#00af41"/><polygon id="ben-six" points="255.5 375.95 218.88 375.95 198.46 379.83 96.69 379.83 96.69 433.33 192.05 433.33 217.02 439.91 254.94 439.91 255.5 375.95" style="fill:#00af41"/><path id="ben-five" d="M255.5,441.77H215.34l-25-6.58H96.69v10.63s3.88,9.85,15.7-.9v40.73h81l23,5.91H255.5V441.77Z" style="fill:#00af41"/><polygon id="ben-four" points="255.5 493.57 216.01 493.57 192.22 487.33 123.7 487.33 126.4 530.71 196.27 529.02 220.91 535.1 257.36 528.01 255.5 493.57" style="fill:#d1d3d3"/><polygon id="ben-tree" points="257.36 530.03 220.91 537.79 195.25 531.21 121.5 532.73 130.95 589.77 210.78 571.04 227.99 574.42 263.94 562.6 257.36 530.03" style="fill:#d1d3d3"/><polygon id="ben-two" points="264.36 563.95 227.82 576.11 210.27 572.39 135.17 591.13 150.36 637.03 225.46 608.51 240.82 609.35 278.45 593.15 264.36 563.95" style="fill:#d1d3d3"/><polygon id="ben-one" points="279.05 594.75 240.82 611.12 225.21 610.37 154.83 638.13 175.62 680.01 291.51 618.91 279.05 594.75" style="fill:#d1d3d3"/><polygon id="twenty" points="295.16 619.31 179.73 680.01 202.34 723.61 262.76 663.7 276.43 655.09 299.72 625.22 295.16 619.31" style="fill:#d1d3d3"/><polygon points="292.55 618.42 279.85 594.33 282.17 593.4 294.66 617.41 292.55 618.42" style="fill:#d1d3d3"/><polygon points="279.39 592.73 265.29 563.56 275.42 559.9 287.57 589.04 279.39 592.73" style="fill:#d1d3d3"/><polygon points="264.9 562.1 258.65 529.81 275.36 526.15 282.52 556.03 264.9 562.1" style="fill:#d1d3d3"/><polygon points="258.65 527.84 274.63 524.46 272.27 493.3 256.74 493.63 258.65 527.84" style="fill:#d1d3d3"/><rect x="256.74" y="441.82" width="15.41" height="49.73" style="fill:#00af41"/><rect x="256.74" y="375.95" width="15.41" height="63.96" transform="translate(528.9 815.86) rotate(-180)" style="fill:#00af41"/><polygon points="272.15 321.61 257.02 320.85 257.02 374.51 272.15 374.51 272.15 321.61" style="fill:#00af41"/><polygon points="257.36 318.34 274.22 319.36 276.72 291.23 258.88 287.94 257.36 318.34" style="fill:#fcee21"/><polygon points="259.13 285.54 277.27 289.2 284.87 258.4 265.46 251.74 259.13 285.54" style="fill:#fcee21"/><polygon points="278.12 217.9 266.47 249.29 278.88 253.51 289.59 223.21 278.12 217.9" style="fill:#fcee21"/><rect id="tren-six" x="371.75" y="49.59" width="64.3" height="128.94" style="fill:#333e48"/><polygon id="forty" points="563.59 159.52 627.15 125.31 603.41 83.23 552.33 141.4 563.59 159.52" style="fill:#d1d3d3"/><polygon id="tren-nine" points="550.42 140.84 602.4 81.44 555.6 50.38 534.22 141.97 550.42 140.84" style="fill:#333e48"/><polygon id="tren-eight" points="553.35 49.59 530.23 150.01 517.57 168.41 494.28 178.53 485 178.53 485 49.59 553.35 49.59" style="fill:#333e48"/><rect id="tren-seven" x="438.81" y="49.59" width="43.88" height="128.94" style="fill:#333e48"/><polygon id="tren-tree" points="257.37 140.84 205.39 81.44 252.2 50.38 273.57 141.97 257.37 140.84" style="fill:#333e48"/><polygon id="tren-four" points="254.45 49.59 277.57 150.01 290.23 168.41 313.51 178.53 322.8 178.53 322.8 49.59 254.45 49.59" style="fill:#333e48"/><rect id="tren-five" x="325.1" y="49.59" width="43.88" height="128.94" transform="translate(694.09 228.13) rotate(-180)" style="fill:#333e48"/><text/><polygon id="fourteen" points="507.66 628.24 528.92 656.37 554.48 757.18 485.63 757.18 485.63 628.24 507.66 628.24" style="fill:#333e48"/><polygon id="thirteen" points="556.28 756.05 602.86 725.22 543.01 664.69 530.86 658.17 556.28 756.05" style="fill:#333e48"/><rect id="fifteen" x="439.05" y="628.24" width="44.78" height="128.94" style="fill:#333e48"/><polygon id="eighteen" points="300.13 628.24 278.87 656.37 253.31 757.18 322.17 757.18 322.17 628.24 300.13 628.24" style="fill:#333e48"/><polygon id="nineteen" points="251.51 756.05 204.93 725.22 264.79 664.69 276.94 658.17 251.51 756.05" style="fill:#333e48"/><rect id="seventeen" x="323.97" y="628.24" width="44.78" height="128.94" transform="translate(692.71 1385.42) rotate(-180)" style="fill:#333e48"/><rect id="sixteen" x="370.93" y="628.01" width="65.93" height="129.16" style="fill:#333e48"/><polygon points="555.85 683.33 553.67 681.03 555.09 678.19 556.3 678.79 555.3 680.78 556.83 682.4 555.85 683.33" style="fill:#231f20"/><path d="M558.21,675l-1.21-.6,2.56-5.1,1.21,0.6Zm4.47-8.93-1.21-.6,2.56-5.1,1.21,0.6Zm4.47-8.93-1.21-.6,2.56-5.1,1.21,0.6Z" style="fill:#231f20"/><polygon points="571.63 648.18 570.42 647.58 571.94 644.55 574.94 646.11 574.32 647.31 572.53 646.38 571.63 648.18" style="fill:#231f20"/><path d="M652,687.78l-4.93-2.57,0.62-1.2,4.93,2.57Zm-8.64-4.5-4.93-2.57,0.62-1.2,4.93,2.57Zm-8.64-4.5-4.93-2.57,0.62-1.2,4.93,2.57Zm-8.63-4.5-4.93-2.57,0.62-1.2,4.93,2.57Zm-8.64-4.5-4.93-2.57,0.62-1.2,4.93,2.57Zm-8.63-4.5-4.93-2.57,0.62-1.2,4.93,2.57Zm-8.64-4.5-4.93-2.57,0.62-1.2,4.93,2.57Zm-8.63-4.5-4.93-2.57,0.62-1.2,4.93,2.57Zm-8.64-4.5L578,649.24l0.62-1.2,4.93,2.57Z" style="fill:#231f20"/><polygon points="657.58 693 656.44 692.29 657.48 690.62 655.74 689.71 656.36 688.51 659.4 690.1 657.58 693" style="fill:#231f20"/><path d="M624.66,745.52l-1.14-.72,2.69-4.29,1.14,0.72Zm4.7-7.5-1.14-.72,2.69-4.29,1.14,0.72Zm4.7-7.5-1.14-.72,2.69-4.29,1.14,0.72Zm4.7-7.5-1.14-.72,2.69-4.29,1.14,0.72Zm4.7-7.5-1.14-.72,2.69-4.29,1.14,0.72Zm4.7-7.5-1.14-.72,2.69-4.29,1.14,0.72Zm4.7-7.5-1.14-.72,2.69-4.29,1.14,0.72Z" style="fill:#231f20"/><polygon points="620.75 751.76 618.29 749.17 619.27 748.24 620.53 749.57 621.5 748.02 622.65 748.74 620.75 751.76" style="fill:#231f20"/><path d="M615.45,746.18l-3.78-4,1-.93,3.78,4Zm-6.62-7-3.78-4,1-.93,3.78,4Zm-6.62-7-3.78-4,1-.93,3.78,4Zm-6.62-7-3.78-4,1-.93,3.78,4Zm-6.62-7-3.78-4,1-.93,3.78,4Zm-6.62-7-3.78-4,1-.93,3.78,4Zm-6.62-7-3.78-4,1-.93,3.78,4Zm-6.62-7-3.78-4,1-.93,3.78,4Zm-6.62-7-3.78-4,1-.93,3.78,4Z" style="fill:#231f20"/><polygon points="261.98 144.9 260.82 144.21 261.96 142.29 260.55 140.57 261.59 139.72 263.61 142.17 261.98 144.9" style="fill:#231f20"/><path d="M246.67,170.65l-1.16-.69,2.92-4.91,1.16,0.69Zm5.1-8.58-1.16-.69,2.92-4.91,1.16,0.69Zm5.1-8.58-1.16-.69,2.92-4.91,1.16,0.69Z" style="fill:#231f20"/><polygon points="242.75 177.24 239.87 175.46 240.58 174.31 242.3 175.37 243.33 173.64 244.49 174.33 242.75 177.24" style="fill:#231f20"/><path d="M236.32,173.27l-4.74-2.92,0.71-1.15,4.74,2.92ZM228,168.17l-4.74-2.92L224,164.1l4.74,2.92Zm-8.29-5.11L215,160.14l0.71-1.15,4.74,2.92ZM211.45,158L206.72,155l0.71-1.15,4.74,2.92Zm-8.29-5.11-4.74-2.92,0.71-1.15,4.74,2.92Zm-8.29-5.11-4.74-2.92,0.71-1.15,4.74,2.92Zm-8.29-5.11-4.74-2.92,0.71-1.15,4.74,2.92Zm-8.29-5.11-4.74-2.92,0.71-1.15,4.74,2.92ZM170,132.42l-4.74-2.92,0.71-1.15,4.74,2.92Z" style="fill:#231f20"/><polygon points="161.72 127.31 158.8 125.51 160.82 122.74 161.91 123.54 160.75 125.13 162.43 126.16 161.72 127.31" style="fill:#231f20"/><path d="M164.16,120.48l-1.09-.8,3-4.08,1.09,0.8Zm5.23-7.14-1.09-.8,3-4.08,1.09,0.8Zm5.23-7.14-1.09-.8,3-4.08,1.09,0.8ZM179.85,99l-1.09-.8,3-4.08,1.09,0.8Zm5.23-7.14L184,91.1,187,87l1.09,0.8Zm5.23-7.14-1.09-.8,3-4.08,1.09,0.8Zm5.23-7.14-1.09-.8,3-4.08,1.09,0.8Z" style="fill:#231f20"/><polygon points="200.77 70.47 199.68 69.67 201.79 66.79 204.06 69.55 203.01 70.41 201.85 68.99 200.77 70.47" style="fill:#231f20"/><path d="M257.93,137.38l-3.49-4.25,1-.86,3.49,4.25Zm-6.1-7.44-3.49-4.25,1-.86,3.49,4.25Zm-6.1-7.44-3.49-4.25,1-.86,3.49,4.25Zm-6.1-7.44-3.49-4.25,1-.86,3.49,4.25Zm-6.1-7.44L230,103.36l1-.86,3.49,4.25Zm-6.1-7.44-3.49-4.25,1-.86,3.49,4.25Zm-6.1-7.44-3.49-4.25,1-.86,3.49,4.25Zm-6.1-7.44L211.73,81l1-.86,3.49,4.25Zm-6.1-7.44-3.49-4.25,1-.86L210.16,77Z" style="fill:#231f20"/><rect x="456.62" y="105.07" width="34.26" height="22.7" transform="translate(357.33 590.17) rotate(-90)" style="fill:#58595b"/><path d="M488.8,116.42a15,15,0,1,1-15-15A15.06,15.06,0,0,1,488.8,116.42Z" style="fill:#58595b"/><circle cx="473.75" cy="116.42" r="13.8" style="fill:#58595b"/><rect x="410.55" y="105.07" width="34.26" height="22.7" transform="translate(311.26 544.1) rotate(-90)" style="fill:#58595b"/><path d="M442.72,116.42a15,15,0,1,1-15-15A15.06,15.06,0,0,1,442.72,116.42Z" style="fill:#58595b"/><circle cx="427.68" cy="116.42" r="13.8" style="fill:#58595b"/><rect x="363.12" y="105.07" width="34.26" height="22.7" transform="translate(263.83 496.67) rotate(-90)" style="fill:#58595b"/><path d="M395.29,116.42a15,15,0,1,1-15-15A15.06,15.06,0,0,1,395.29,116.42Z" style="fill:#58595b"/><circle cx="380.25" cy="116.42" r="13.8" style="fill:#58595b"/><rect x="317.04" y="105.07" width="34.26" height="22.7" transform="translate(217.75 450.59) rotate(-90)" style="fill:#58595b"/><path d="M349.22,116.42a15,15,0,1,1-15-15A15.06,15.06,0,0,1,349.22,116.42Z" style="fill:#58595b"/><circle cx="334.17" cy="116.42" r="13.8" style="fill:#58595b"/><rect x="456.62" y="674.69" width="34.26" height="22.7" transform="translate(-212.29 1159.79) rotate(-90)" style="fill:#58595b"/><path d="M488.8,686a15,15,0,1,1-15-15A15.06,15.06,0,0,1,488.8,686Z" style="fill:#58595b"/><circle cx="473.75" cy="686.04" r="13.8" style="fill:#58595b"/><rect x="410.55" y="674.69" width="34.26" height="22.7" transform="translate(-258.36 1113.72) rotate(-90)" style="fill:#58595b"/><path d="M442.72,686a15,15,0,1,1-15-15A15.06,15.06,0,0,1,442.72,686Z" style="fill:#58595b"/><circle cx="427.68" cy="686.04" r="13.8" style="fill:#58595b"/><rect x="363.12" y="674.69" width="34.26" height="22.7" transform="translate(-305.79 1066.29) rotate(-90)" style="fill:#58595b"/><path d="M395.29,686a15,15,0,1,1-15-15A15.06,15.06,0,0,1,395.29,686Z" style="fill:#58595b"/><circle cx="380.25" cy="686.04" r="13.8" style="fill:#58595b"/><rect x="317.04" y="674.69" width="34.26" height="22.7" transform="translate(-351.87 1020.21) rotate(-90)" style="fill:#58595b"/><path d="M349.22,686a15,15,0,1,1-15-15A15.06,15.06,0,0,1,349.22,686Z" style="fill:#58595b"/><circle cx="334.17" cy="686.04" r="13.8" style="fill:#58595b"/><rect x="592.42" y="365.75" width="34.26" height="22.7" style="fill:#58595b"/><path d="M609.55,392.15a15,15,0,1,1,15-15A15.06,15.06,0,0,1,609.55,392.15Z" style="fill:#58595b"/><circle cx="609.55" cy="377.1" r="13.8" style="fill:#58595b"/><rect x="592.42" y="308.51" width="34.26" height="22.7" style="fill:#58595b"/><path d="M609.55,334.91a15,15,0,1,1,15-15A15.06,15.06,0,0,1,609.55,334.91Z" style="fill:#58595b"/><circle cx="609.55" cy="319.86" r="13.8" style="fill:#58595b"/><rect x="590.17" y="266.53" width="34.26" height="22.7" transform="translate(-16.22 38.62) rotate(-3.59)" style="fill:#58595b"/><path d="M608.24,292.9a15,15,0,1,1,14.07-16A15.06,15.06,0,0,1,608.24,292.9Z" style="fill:#58595b"/><circle cx="607.3" cy="277.88" r="13.8" transform="translate(-16.22 38.62) rotate(-3.59)" style="fill:#58595b"/><rect x="583.96" y="221.4" width="34.26" height="22.7" transform="translate(-31.82 110.64) rotate(-10.25)" style="fill:#58595b"/><path d="M603.77,247.56a15,15,0,1,1,12.13-17.48A15.06,15.06,0,0,1,603.77,247.56Z" style="fill:#58595b"/><circle cx="601.09" cy="232.75" r="13.8" transform="translate(-31.82 110.64) rotate(-10.25)" style="fill:#58595b"/><rect x="571.05" y="180.71" width="34.26" height="22.7" transform="translate(-30.53 198.48) rotate(-18.68)" style="fill:#58595b"/><path d="M593,206.31a15,15,0,1,1,9.44-19.07A15.06,15.06,0,0,1,593,206.31Z" style="fill:#58595b"/><circle cx="588.18" cy="192.06" r="13.8" transform="translate(-30.53 198.48) rotate(-18.68)" style="fill:#58595b"/><rect x="592.42" y="425.69" width="34.26" height="22.7" style="fill:#58595b"/><path d="M609.55,452.09a15,15,0,1,1,15-15A15.06,15.06,0,0,1,609.55,452.09Z" style="fill:#58595b"/><circle cx="609.55" cy="437.05" r="13.8" style="fill:#58595b"/><rect x="592.42" y="479.26" width="34.26" height="22.7" style="fill:#58595b"/><path d="M609.55,505.65a15,15,0,1,1,15-15A15.06,15.06,0,0,1,609.55,505.65Z" style="fill:#58595b"/><circle cx="609.55" cy="490.61" r="13.8" style="fill:#58595b"/><rect x="587.39" y="523.36" width="34.26" height="22.7" transform="translate(59.13 -60.19) rotate(5.99)" style="fill:#58595b"/><path d="M603,549.68a15,15,0,1,1,16.54-13.39A15.06,15.06,0,0,1,603,549.68Z" style="fill:#58595b"/><circle cx="604.52" cy="534.71" r="13.8" transform="translate(9.62 1080.11) rotate(-84.01)" style="fill:#58595b"/><rect x="577.58" y="562.51" width="34.26" height="22.7" transform="translate(152.98 -124.62) rotate(13.71)" style="fill:#58595b"/><path d="M591.14,588.48a15,15,0,1,1,18.19-11.05A15.06,15.06,0,0,1,591.14,588.48Z" style="fill:#58595b"/><circle cx="594.71" cy="573.86" r="13.8" transform="translate(-103.77 1015.59) rotate(-76.29)" style="fill:#58595b"/><rect x="562.53" y="601.61" width="34.26" height="22.7" transform="translate(258.85 -167.3) rotate(21.05)" style="fill:#58595b"/><path d="M574.26,627a15,15,0,1,1,19.45-8.64A15.06,15.06,0,0,1,574.26,627Z" style="fill:#58595b"/><circle cx="579.66" cy="612.96" r="13.8" transform="translate(-200.6 933.77) rotate(-68.95)" style="fill:#58595b"/><polygon points="540.72 696.13 530.87 658.2 530.87 658.2 545.34 665.92 561.11 683.02 540.72 696.13" style="fill:#58595b"/><path d="M529,683.27a15,15,0,1,1,20.79,4.52A15.06,15.06,0,0,1,529,683.27Z" style="fill:#58595b"/><circle cx="541.7" cy="675.14" r="13.8" transform="translate(-279.04 400.12) rotate(-32.73)" style="fill:#58595b"/><polygon points="567.25 121.65 550.75 140.85 537.72 141.74 534.22 141.97 537.94 126 542.55 106.33 567.25 121.65" style="fill:#58595b"/><path d="M558.93,137.24a15,15,0,1,1-1-21.26A15.06,15.06,0,0,1,558.93,137.24Z" style="fill:#58595b"/><circle cx="547.79" cy="127.12" r="13.8" transform="matrix(0.67, -0.74, 0.74, 0.67, 85.47, 447.28)" style="fill:#58595b"/><rect x="181.25" y="365.75" width="34.26" height="22.7" transform="translate(396.75 754.21) rotate(-180)" style="fill:#58595b"/><path d="M198.38,392.15a15,15,0,1,0-15-15A15.06,15.06,0,0,0,198.38,392.15Z" style="fill:#58595b"/><circle cx="198.38" cy="377.1" r="13.8" style="fill:#58595b"/><rect x="181.25" y="308.51" width="34.26" height="22.7" transform="translate(396.75 639.73) rotate(-180)" style="fill:#58595b"/><path d="M198.38,334.91a15,15,0,1,0-15-15A15.06,15.06,0,0,0,198.38,334.91Z" style="fill:#58595b"/><circle cx="198.38" cy="319.86" r="13.8" style="fill:#58595b"/><rect x="183.49" y="266.53" width="34.26" height="22.7" transform="translate(383.43 567.79) rotate(-176.41)" style="fill:#58595b"/><path d="M199.68,292.9a15,15,0,1,0-14.07-16A15.06,15.06,0,0,0,199.68,292.9Z" style="fill:#58595b"/><circle cx="200.62" cy="277.88" r="13.8" transform="matrix(0.06, -1, 1, 0.06, -89.29, 460.69)" style="fill:#58595b"/><rect x="189.7" y="221.4" width="34.26" height="22.7" transform="translate(368.95 498.59) rotate(-169.75)" style="fill:#58595b"/><path d="M204.15,247.56A15,15,0,1,0,192,230.08,15.06,15.06,0,0,0,204.15,247.56Z" style="fill:#58595b"/><circle cx="206.83" cy="232.75" r="13.8" transform="matrix(0.18, -0.98, 0.98, 0.18, -59.01, 394.88)" style="fill:#58595b"/><rect x="202.61" y="180.71" width="34.26" height="22.7" transform="translate(366.4 444.38) rotate(-161.32)" style="fill:#58595b"/><path d="M214.92,206.31a15,15,0,1,0-9.44-19.07A15.06,15.06,0,0,0,214.92,206.31Z" style="fill:#58595b"/><circle cx="219.74" cy="192.06" r="13.8" transform="translate(-32.58 338.72) rotate(-71.32)" style="fill:#58595b"/><rect x="181.25" y="425.69" width="34.26" height="22.7" transform="translate(396.75 874.09) rotate(-180)" style="fill:#58595b"/><path d="M198.38,452.09a15,15,0,1,0-15-15A15.06,15.06,0,0,0,198.38,452.09Z" style="fill:#58595b"/><circle cx="198.38" cy="437.05" r="13.8" style="fill:#58595b"/><rect x="181.25" y="479.26" width="34.26" height="22.7" transform="translate(396.75 981.21) rotate(-180)" style="fill:#58595b"/><path d="M198.38,505.65a15,15,0,1,0-15-15A15.06,15.06,0,0,0,198.38,505.65Z" style="fill:#58595b"/><circle cx="198.38" cy="490.61" r="13.8" style="fill:#58595b"/><rect x="186.27" y="523.36" width="34.26" height="22.7" transform="translate(461.51 1045.27) rotate(174.01)" style="fill:#58595b"/><path d="M205,549.68a15,15,0,1,0-16.54-13.39A15.06,15.06,0,0,0,205,549.68Z" style="fill:#58595b"/><circle cx="203.4" cy="534.71" r="13.8" transform="translate(-54.71 24.16) rotate(-5.99)" style="fill:#58595b"/><rect x="196.08" y="562.51" width="34.26" height="22.7" transform="translate(556.38 1080.82) rotate(166.29)" style="fill:#58595b"/><path d="M216.78,588.48a15,15,0,1,0-18.19-11.05A15.06,15.06,0,0,0,216.78,588.48Z" style="fill:#58595b"/><circle cx="213.21" cy="573.86" r="13.8" transform="translate(-129.96 66.9) rotate(-13.71)" style="fill:#58595b"/><rect x="211.13" y="601.61" width="34.26" height="22.7" transform="translate(661.45 1103.02) rotate(158.95)" style="fill:#58595b"/><path d="M233.66,627a15,15,0,1,0-19.45-8.64A15.06,15.06,0,0,0,233.66,627Z" style="fill:#58595b"/><circle cx="228.26" cy="612.96" r="13.8" transform="translate(-204.93 122.89) rotate(-21.05)" style="fill:#58595b"/><polygon points="267.2 696.13 277.06 658.2 277.06 658.2 262.59 665.92 246.81 683.02 267.2 696.13" style="fill:#58595b"/><path d="M278.88,683.27a15,15,0,1,0-20.79,4.52A15.06,15.06,0,0,0,278.88,683.27Z" style="fill:#58595b"/><circle cx="266.22" cy="675.14" r="13.8" transform="translate(-445.66 534.02) rotate(-57.27)" style="fill:#58595b"/><text/><text/><text/><text/><text/><text/><text/><text/><text/><text/><text/><text/><text/><text/><text/><text/><text/><text transform="translate(188.35 385.61)" style="font-size:25.366619110107422px;fill:#fff;font-family:Bebas Neue;font-weight:700"> </text><text/><text/><text/><text/><text/><text/><text/><text/><text/><text/><text/><text/><text/><text/><rect x="535.64" y="375.95" width="15.41" height="28.43" style="fill:#fcee21"/><text transform="translate(617.61 168.4)" style="font-size:27.002685546875px;fill:#333e48;font-family:Bebas Neue;font-weight:700">1</text><text transform="translate(588.18 125.17)" style="font-size:27.002685546875px;fill:#333e48;font-family:Bebas Neue;font-weight:700">40</text><text transform="translate(638.58 209.54)" style="font-size:27.002685546875px;fill:#333e48;font-family:Bebas Neue;font-weight:700">2</text><text transform="translate(653.72 260.85)" style="font-size:27.002685546875px;fill:#333e48;font-family:Bebas Neue;font-weight:700">3</text><text transform="translate(657.77 308.51)" style="font-size:27.002685546875px;fill:#333e48;font-family:Bebas Neue;font-weight:700">4</text><text transform="translate(657.77 357.91)" style="font-size:27.002685546875px;fill:#fff;font-family:Bebas Neue;font-weight:700">5</text><text transform="translate(657.77 417.45)" style="font-size:27.002685546875px;fill:#fff;font-family:Bebas Neue;font-weight:700">6</text><text transform="translate(657.77 473.14)" style="font-size:27.002685546875px;fill:#fff;font-family:Bebas Neue;font-weight:700">7</text><text transform="translate(655.52 520.64)" style="font-size:27.002685546875px;fill:#333e48;font-family:Bebas Neue;font-weight:700">8</text><text transform="translate(651.02 571.95)" style="font-size:27.002685546875px;fill:#333e48;font-family:Bebas Neue;font-weight:700">9</text><text transform="translate(627.69 615.98)" style="font-size:27.002685546875px;fill:#333e48;font-family:Bebas Neue;font-weight:700">10</text><text transform="translate(602.46 658.79)" style="font-size:27.002685546875px;fill:#333e48;font-family:Bebas Neue;font-weight:700">11</text><text transform="translate(579.66 698.06)" style="font-size:27.002685546875px;fill:#333e48;font-family:Bebas Neue;font-weight:700">12</text><text transform="translate(196.24 698.06)" style="font-size:27.002685546875px;fill:#333e48;font-family:Bebas Neue;font-weight:700">20</text><text transform="translate(176.1 660.09)" style="font-size:27.002685546875px;fill:#333e48;font-family:Bebas Neue;font-weight:700">21</text><text transform="translate(154.83 618.42)" style="font-size:27.002685546875px;fill:#333e48;font-family:Bebas Neue;font-weight:700">22</text><text transform="translate(135.17 571.95)" style="font-size:27.002685546875px;fill:#333e48;font-family:Bebas Neue;font-weight:700">23</text><text transform="translate(135.17 521.55)" style="font-size:27.002685546875px;fill:#333e48;font-family:Bebas Neue;font-weight:700">24</text><text transform="translate(126.62 473.14)" style="font-size:27.002685546875px;fill:#fff;font-family:Bebas Neue;font-weight:700">25</text><text transform="translate(124.2 420.73)" style="font-size:27.002685546875px;fill:#fff;font-family:Bebas Neue;font-weight:700">26</text><text transform="translate(126.62 363.31)" style="font-size:27.002685546875px;fill:#fff;font-family:Bebas Neue;font-weight:700">27</text><text transform="translate(135.17 310.2)" style="font-size:27.002685546875px;fill:#333e48;font-family:Bebas Neue;font-weight:700">28</text><text transform="translate(135.51 262.83)" style="font-size:27.002685546875px;fill:#333e48;font-family:Bebas Neue;font-weight:700">29</text><text transform="translate(149.01 209.54)" style="font-size:27.002685546875px;fill:#333e48;font-family:Bebas Neue;font-weight:700">30</text><text transform="translate(169.71 168.4)" style="font-size:27.002685546875px;fill:#333e48;font-family:Bebas Neue;font-weight:700">31</text><polygon id="tren-dos" points="243.89 158.62 180.32 124.42 204.06 82.34 255.14 140.5 243.89 158.62" style="fill:#333e48"/><text transform="translate(196.24 126)" style="font-size:27.002685546875px;fill:#fcee21;font-family:Bebas Neue;font-weight:700">32</text><text transform="translate(227.71 91.42)" style="font-size:27.002685546875px;fill:#fcee21;font-family:Bebas Neue;font-weight:700">33</text><text transform="translate(281.27 76.56)" style="font-size:27.002685546875px;fill:#fcee21;font-family:Bebas Neue;font-weight:700">34</text><text transform="translate(336.21 76.56)" style="font-size:27.002685546875px;fill:#fcee21;font-family:Bebas Neue;font-weight:700">35</text><text transform="translate(395.29 76.56)" style="font-size:27.002685546875px;fill:#fcee21;font-family:Bebas Neue;font-weight:700">36</text><text transform="translate(450.92 76.56)" style="font-size:27.002685546875px;fill:#fcee21;font-family:Bebas Neue;font-weight:700">37</text><text transform="translate(508.98 76.56)" style="font-size:27.002685546875px;fill:#fcee21;font-family:Bebas Neue;font-weight:700">38</text><text transform="translate(559.11 91.42)" style="font-size:27.002685546875px;fill:#fcee21;font-family:Bebas Neue;font-weight:700">39</text><text transform="translate(550.77 733.17)" style="font-size:27.002685546875px;fill:#fd0;font-family:Bebas Neue;font-weight:700">13</text><text transform="translate(502.17 739.92)" style="font-size:27.002685546875px;fill:#fd0;font-family:Bebas Neue;font-weight:700">14</text><text transform="translate(447.06 739.92)" style="font-size:27.002685546875px;fill:#fd0;font-family:Bebas Neue;font-weight:700">15</text><text transform="translate(389.46 739.92)" style="font-size:27.002685546875px;fill:#fd0;font-family:Bebas Neue;font-weight:700">16</text><text transform="translate(331.93 739.92)" style="font-size:27.002685546875px;fill:#fd0;font-family:Bebas Neue;font-weight:700">17</text><text transform="translate(281.27 739.92)" style="font-size:27.002685546875px;fill:#fd0;font-family:Bebas Neue;font-weight:700">18</text><text transform="translate(225.87 733.17)" style="font-size:27.002685546875px;fill:#fd0;font-family:Bebas Neue;font-weight:700">19</text><rect x="87.24" y="348.11" width="28.45" height="110.98" rx="10.53" ry="10.53" style="fill:#333e48"/><text transform="translate(109.1 444.93) rotate(-90)" style="font-size:22.760953903198242px;fill:#fff;font-family:Bebas Neue;font-weight:700">PRESS B<tspan x="62.39" y="0">O</tspan><tspan x="71.97" y="0">X</tspan></text><polygon points="240.61 121.69 257.18 140.85 273.68 141.98 273.68 141.98 269.98 126 265.37 106.33 240.61 121.69" style="fill:#58595b"/><path d="M249,137.24A15,15,0,1,0,250,116,15.06,15.06,0,0,0,249,137.24Z" style="fill:#58595b"/><circle cx="260.13" cy="127.12" r="13.8" transform="translate(-17.92 207.84) rotate(-42.23)" style="fill:#58595b"/><rect x="518.45" y="224.75" width="21.9" height="21.9" rx="3.84" ry="3.84" style="fill:#333e48"/><rect x="519.31" y="225.62" width="20.17" height="20.17" rx="2.21" ry="2.21" style="fill:#fcee21"/><path d="M528.95,233.22h2.6a0.65,0.65,0,0,1,.69.8,0.68,0.68,0,0,1-.7.51h-2.49v1.07h3.42a1,1,0,0,1,.9.52q1.15,2,2.32,4a0.89,0.89,0,0,1,.08.89,0.84,0.84,0,0,1-1.38.15,1.74,1.74,0,0,1-.16-0.24l-1.71-3a0.26,0.26,0,0,0-.26-0.15h-4.33a1.61,1.61,0,0,1-1-.29,1.39,1.39,0,0,1-.57-1.07c-0.09-1.39-.16-2.79-0.24-4.18a1.39,1.39,0,0,1,1.79-1.48,1.43,1.43,0,0,1,1,1.32C528.89,232.46,528.92,232.83,528.95,233.22Z" style="fill:#333e48"/><path d="M532.42,239.33c0.25,0.43.49,0.83,0.71,1.24a0.21,0.21,0,0,1,0,.16,5.35,5.35,0,0,1-9.26.73,5,5,0,0,1-.9-3.53,5.25,5.25,0,0,1,2.33-3.9l0.17-.11c0,0.29,0,.56.06,0.83a0.89,0.89,0,0,1-.3.82,4.21,4.21,0,1,0,6.21,5.69,4.13,4.13,0,0,0,.92-1.72Z" style="fill:#333e48"/><path d="M528.8,229a1.42,1.42,0,1,1-1.43-1.43A1.43,1.43,0,0,1,528.8,229Z" style="fill:#333e48"/><rect x="292.54" y="160.29" width="21.9" height="21.9" rx="3.84" ry="3.84" style="fill:#333e48"/><rect x="293.4" y="161.15" width="20.17" height="20.17" rx="2.21" ry="2.21" style="fill:#fcee21"/><path d="M303,168.76h2.6a0.65,0.65,0,0,1,.69.8,0.68,0.68,0,0,1-.7.51h-2.49v1.07h3.42a1,1,0,0,1,.9.52q1.15,2,2.32,4a0.89,0.89,0,0,1,.08.89,0.84,0.84,0,0,1-1.38.15,1.74,1.74,0,0,1-.16-0.24l-1.71-3a0.26,0.26,0,0,0-.26-0.15H302a1.61,1.61,0,0,1-1-.29,1.39,1.39,0,0,1-.57-1.07c-0.09-1.39-.16-2.79-0.24-4.18a1.39,1.39,0,0,1,1.79-1.48,1.43,1.43,0,0,1,1,1.32C303,168,303,168.37,303,168.76Z" style="fill:#333e48"/><path d="M306.52,174.87c0.25,0.43.49,0.83,0.71,1.24a0.21,0.21,0,0,1,0,.16A5.35,5.35,0,0,1,298,177a5,5,0,0,1-.9-3.53,5.25,5.25,0,0,1,2.33-3.9l0.17-.11c0,0.29,0,.56.06,0.83a0.89,0.89,0,0,1-.3.82,4.21,4.21,0,1,0,6.21,5.69,4.13,4.13,0,0,0,.92-1.72Z" style="fill:#333e48"/><path d="M302.89,164.56a1.42,1.42,0,1,1-1.43-1.43A1.43,1.43,0,0,1,302.89,164.56Z" style="fill:#333e48"/><rect x="276" y="192.06" width="21.9" height="21.9" rx="3.84" ry="3.84" style="fill:#333e48"/><rect x="276.86" y="192.92" width="20.17" height="20.17" rx="2.21" ry="2.21" style="fill:#fcee21"/><path d="M286.5,200.53h2.6a0.65,0.65,0,0,1,.69.8,0.68,0.68,0,0,1-.7.51H286.6v1.07H290a1,1,0,0,1,.9.52q1.15,2,2.32,4a0.89,0.89,0,0,1,.08.89,0.84,0.84,0,0,1-1.38.15,1.74,1.74,0,0,1-.16-0.24l-1.71-3a0.26,0.26,0,0,0-.26-0.15h-4.33a1.61,1.61,0,0,1-1-.29,1.39,1.39,0,0,1-.57-1.07c-0.09-1.39-.16-2.79-0.24-4.18a1.39,1.39,0,0,1,1.79-1.48,1.43,1.43,0,0,1,1,1.32C286.43,199.77,286.47,200.14,286.5,200.53Z" style="fill:#333e48"/><path d="M290,206.64c0.25,0.43.49,0.83,0.71,1.24a0.21,0.21,0,0,1,0,.16,5.35,5.35,0,0,1-9.26.73,5,5,0,0,1-.9-3.53,5.25,5.25,0,0,1,2.33-3.9l0.17-.11c0,0.29,0,.56.06,0.83a0.89,0.89,0,0,1-.3.82,4.21,4.21,0,1,0,6.21,5.69,4.13,4.13,0,0,0,.92-1.72Z" style="fill:#333e48"/><path d="M286.35,196.33a1.42,1.42,0,1,1-1.43-1.43A1.43,1.43,0,0,1,286.35,196.33Z" style="fill:#333e48"/><text/><text/></svg>